# xmcd
#
# Track frame offsets:
# 150
# 16439
# 34037
# 52631
# 72565
# 93238
# 110483
# 124642
# 142009
# 158663
# 176912
# 191579
# 210841
# 231268
#
# Disc length: 3369 seconds
#
#
# Revision: 3
# Processed by: cddbd v1.5.1PL2 Copyright (c) Steve Scherf et al.
# Submitted via: FreeRIP 2.945 
#
DISCID=b90d270e
DTITLE=Various Artist - 再會
DYEAR=1900
DGENRE=Blues
TTITLE0=그대와 함께  - Ref
TTITLE1=제주도 푸른밤 - 이혜진
TTITLE2=변해가네 - DJ DOC
TTITLE3=어제 오늘 그리고 - 유승준
TTITLE4=너를 사랑했다 - 구피
TTITLE5=열정 - 코요테
TTITLE6=뱃놀이  - DJ DOC
TTITLE7=아! 옛날이여 - 신철, 이선희
TTITLE8=사랑이라는 이유로 - 조트리오
TTITLE9=춘천가는 기차 -불독맨션
TTITLE10=기억속으로 - 김창렬
TTITLE11=One - 김종국
TTITLE12=내가 선택한길 - 김정민
TTITLE13=14번 트랙
EXTD=
EXTT0=
EXTT1=
EXTT2=
EXTT3=
EXTT4=
EXTT5=
EXTT6=
EXTT7=
EXTT8=
EXTT9=
EXTT10=
EXTT11=
EXTT12=
EXTT13=
PLAYORDER=
